HIERARCHY
ROOT Hips
{
	OFFSET 0.000000 100.481300 0.000000
	CHANNELS 6 Xposition Yposition Zposition Xrotation Yrotation Zrotation
	JOINT Spine
	{
		OFFSET -0.279200 12.230698 -2.892100
		CHANNELS 3 Xrotation Yrotation Zrotation
		JOINT Spine1
		{
			OFFSET -0.325700 14.269203 -3.374200
			CHANNELS 3 Xrotation Yrotation Zrotation
			JOINT Spine2
			{
				OFFSET -0.372300 16.307602 -0.352600
				CHANNELS 3 Xrotation Yrotation Zrotation
				JOINT Neck
				{
					OFFSET -0.418800 17.814194 8.416900
					CHANNELS 3 Xrotation Yrotation Zrotation
					JOINT Head
					{
						OFFSET 0.000000 7.031097 3.806800
						CHANNELS 3 Xrotation Yrotation Zrotation
						JOINT HeadTop_End
						{
							OFFSET 0.000000 24.646606 12.978600
							CHANNELS 3 Xrotation Yrotation Zrotation
							End Site
							{
								OFFSET 0.000000 27.854965 0.000000
							}
						}
					}
				}
				JOINT LeftShoulder
				{
					OFFSET 16.952999 14.495407 -7.737500
					CHANNELS 3 Xrotation Yrotation Zrotation
					JOINT LeftArm
					{
						OFFSET 9.308998 -2.777710 0.208600
						CHANNELS 3 Xrotation Yrotation Zrotation
						JOINT LeftForeArm
						{
							OFFSET 29.972298 0.000000 0.000000
							CHANNELS 3 Xrotation Yrotation Zrotation
							JOINT LeftHand
							{
								OFFSET 26.026505 0.000000 0.000000
								CHANNELS 3 Xrotation Yrotation Zrotation
								JOINT LeftHandThumb1
								{
									OFFSET 12.240501 -7.147949 9.207150
									CHANNELS 3 Xrotation Yrotation Zrotation
									JOINT LeftHandThumb2
									{
										OFFSET 4.138618 -2.389435 2.389433
										CHANNELS 3 Xrotation Yrotation Zrotation
										JOINT LeftHandThumb3
										{
											OFFSET 2.726913 -1.574387 1.574386
											CHANNELS 3 Xrotation Yrotation Zrotation
											JOINT LeftHandThumb4
											{
												OFFSET 3.941010 -2.275345 2.275342
												CHANNELS 3 Xrotation Yrotation Zrotation
												End Site
												{
													OFFSET -0.005798 5.087799 0.009903
												}
											}
										}
									}
								}
								JOINT LeftHandIndex1
								{
									OFFSET 24.424698 -1.985611 5.953459
									CHANNELS 3 Xrotation Yrotation Zrotation
									JOINT LeftHandIndex2
									{
										OFFSET 6.426697 0.000000 0.000000
										CHANNELS 3 Xrotation Yrotation Zrotation
										JOINT LeftHandIndex3
										{
											OFFSET 5.337898 0.000000 0.000000
											CHANNELS 3 Xrotation Yrotation Zrotation
											JOINT LeftHandIndex4
											{
												OFFSET 4.409401 0.000000 0.000000
												CHANNELS 3 Xrotation Yrotation Zrotation
												End Site
												{
													OFFSET 0.000000 4.409363 0.014373
												}
											}
										}
									}
								}
								JOINT LeftHandMiddle1
								{
									OFFSET 23.810104 0.000000 0.000000
									CHANNELS 3 Xrotation Yrotation Zrotation
									JOINT LeftHandMiddle2
									{
										OFFSET 7.176498 0.000000 0.000000
										CHANNELS 3 Xrotation Yrotation Zrotation
										JOINT LeftHandMiddle3
										{
											OFFSET 6.774902 0.000000 0.000000
											CHANNELS 3 Xrotation Yrotation Zrotation
											JOINT LeftHandMiddle4
											{
												OFFSET 5.403328 0.000000 0.000000
												CHANNELS 3 Xrotation Yrotation Zrotation
												End Site
												{
													OFFSET -0.027702 5.403244 0.017414
												}
											}
										}
									}
								}
								JOINT LeftHandRing1
								{
									OFFSET 22.908401 -0.839279 -6.020567
									CHANNELS 3 Xrotation Yrotation Zrotation
									JOINT LeftHandRing2
									{
										OFFSET 6.337502 0.000000 0.000000
										CHANNELS 3 Xrotation Yrotation Zrotation
										JOINT LeftHandRing3
										{
											OFFSET 5.779297 0.000000 0.000000
											CHANNELS 3 Xrotation Yrotation Zrotation
											JOINT LeftHandRing4
											{
												OFFSET 4.965698 0.000000 0.000000
												CHANNELS 3 Xrotation Yrotation Zrotation
												End Site
												{
													OFFSET 0.000000 4.965668 0.016186
												}
											}
										}
									}
								}
								JOINT LeftHandPinky1
								{
									OFFSET 20.037003 -1.530319 -10.950146
									CHANNELS 3 Xrotation Yrotation Zrotation
									JOINT LeftHandPinky2
									{
										OFFSET 5.254700 0.000000 0.000000
										CHANNELS 3 Xrotation Yrotation Zrotation
										JOINT LeftHandPinky3
										{
											OFFSET 4.810204 0.000000 0.000000
											CHANNELS 3 Xrotation Yrotation Zrotation
											JOINT LeftHandPinky4
											{
												OFFSET 3.647202 0.000000 0.000000
												CHANNELS 3 Xrotation Yrotation Zrotation
												End Site
												{
													OFFSET 0.000000 3.647186 0.011889
												}
											}
										}
									}
								}
							}
						}
					}
				}
				JOINT RightShoulder
				{
					OFFSET -15.141001 14.495407 -7.737500
					CHANNELS 3 Xrotation Yrotation Zrotation
					JOINT RightArm
					{
						OFFSET -9.308998 -2.777710 0.208500
						CHANNELS 3 Xrotation Yrotation Zrotation
						JOINT RightForeArm
						{
							OFFSET -29.972300 0.000000 0.000000
							CHANNELS 3 Xrotation Yrotation Zrotation
							JOINT RightHand
							{
								OFFSET -26.026505 0.000000 0.000000
								CHANNELS 3 Xrotation Yrotation Zrotation
								JOINT RightHandThumb1
								{
									OFFSET -12.240601 -7.148026 9.207092
									CHANNELS 3 Xrotation Yrotation Zrotation
									JOINT RightHandThumb2
									{
										OFFSET -4.138618 -2.389435 2.389433
										CHANNELS 3 Xrotation Yrotation Zrotation
										JOINT RightHandThumb3
										{
											OFFSET -2.726974 -1.574417 1.574421
											CHANNELS 3 Xrotation Yrotation Zrotation
											JOINT RightHandThumb4
											{
												OFFSET -3.941010 -2.275345 2.275343
												CHANNELS 3 Xrotation Yrotation Zrotation
												End Site
												{
													OFFSET 0.005814 5.087799 0.009927
												}
											}
										}
									}
								}
								JOINT RightHandIndex1
								{
									OFFSET -24.424698 -1.985657 5.953444
									CHANNELS 3 Xrotation Yrotation Zrotation
									JOINT RightHandIndex2
									{
										OFFSET -6.426697 0.000000 0.000000
										CHANNELS 3 Xrotation Yrotation Zrotation
										JOINT RightHandIndex3
										{
											OFFSET -5.337898 0.000000 0.000000
											CHANNELS 3 Xrotation Yrotation Zrotation
											JOINT RightHandIndex4
											{
												OFFSET -4.409401 0.000000 0.000000
												CHANNELS 3 Xrotation Yrotation Zrotation
												End Site
												{
													OFFSET 0.000000 4.409363 0.014408
												}
											}
										}
									}
								}
								JOINT RightHandMiddle1
								{
									OFFSET -23.810097 0.000000 0.000000
									CHANNELS 3 Xrotation Yrotation Zrotation
									JOINT RightHandMiddle2
									{
										OFFSET -7.176498 0.000000 0.000000
										CHANNELS 3 Xrotation Yrotation Zrotation
										JOINT RightHandMiddle3
										{
											OFFSET -6.774902 0.000000 0.000000
											CHANNELS 3 Xrotation Yrotation Zrotation
											JOINT RightHandMiddle4
											{
												OFFSET -5.403328 0.000000 0.000000
												CHANNELS 3 Xrotation Yrotation Zrotation
												End Site
												{
													OFFSET 0.027702 5.403244 0.017457
												}
											}
										}
									}
								}
								JOINT RightHandRing1
								{
									OFFSET -22.908302 -0.839325 -6.020576
									CHANNELS 3 Xrotation Yrotation Zrotation
									JOINT RightHandRing2
									{
										OFFSET -6.337502 0.000000 0.000000
										CHANNELS 3 Xrotation Yrotation Zrotation
										JOINT RightHandRing3
										{
											OFFSET -5.779297 0.000000 0.000000
											CHANNELS 3 Xrotation Yrotation Zrotation
											JOINT RightHandRing4
											{
												OFFSET -4.965698 0.000000 0.000000
												CHANNELS 3 Xrotation Yrotation Zrotation
												End Site
												{
													OFFSET 0.000000 4.965668 0.016226
												}
											}
										}
									}
								}
								JOINT RightHandPinky1
								{
									OFFSET -20.037003 -1.530334 -10.950259
									CHANNELS 3 Xrotation Yrotation Zrotation
									JOINT RightHandPinky2
									{
										OFFSET -5.254700 0.000000 0.000000
										CHANNELS 3 Xrotation Yrotation Zrotation
										JOINT RightHandPinky3
										{
											OFFSET -4.810204 0.000000 0.000000
											CHANNELS 3 Xrotation Yrotation Zrotation
											JOINT RightHandPinky4
											{
												OFFSET -3.647202 0.000000 0.000000
												CHANNELS 3 Xrotation Yrotation Zrotation
												End Site
												{
													OFFSET 0.000000 3.647186 0.011917
												}
											}
										}
									}
								}
							}
						}
					}
				}
			}
		}
	}
	JOINT LeftUpLeg
	{
		OFFSET 15.427100 -6.655098 0.678600
		CHANNELS 3 Xrotation Yrotation Zrotation
		JOINT LeftLeg
		{
			OFFSET 4.081073 -39.591068 13.024000
			CHANNELS 3 Xrotation Yrotation Zrotation
			JOINT LeftFoot
			{
				OFFSET -4.081074 -37.707932 -15.979700
				CHANNELS 3 Xrotation Yrotation Zrotation
				JOINT LeftToeBase
				{
					OFFSET 5.346399 -15.068900 20.645000
					CHANNELS 3 Xrotation Yrotation Zrotation
					JOINT LeftToe_End
					{
						OFFSET 2.754700 0.931300 11.300900
						CHANNELS 3 Xrotation Yrotation Zrotation
						End Site
						{
							OFFSET 0.000000 11.669021 0.000000
						}
					}
				}
			}
		}
	}
	JOINT RightUpLeg
	{
		OFFSET -15.569500 -6.655098 0.678600
		CHANNELS 3 Xrotation Yrotation Zrotation
		JOINT RightLeg
		{
			OFFSET -4.081825 -39.591045 13.023800
			CHANNELS 3 Xrotation Yrotation Zrotation
			JOINT RightFoot
			{
				OFFSET 4.081824 -37.707954 -15.979600
				CHANNELS 3 Xrotation Yrotation Zrotation
				JOINT RightToeBase
				{
					OFFSET -5.346400 -15.068900 20.645000
					CHANNELS 3 Xrotation Yrotation Zrotation
					JOINT RightToe_End
					{
						OFFSET -2.754700 0.931300 11.300900
						CHANNELS 3 Xrotation Yrotation Zrotation
						End Site
						{
							OFFSET 0.000000 11.669021 0.000000
						}
					}
				}
			}
		}
	}
}
MOTION
Frames: 5
Frame Time: 0.033333
1.468630 90.573082 -10.190224 33.620769 2.356877 -6.067914 14.558389 1.592020 2.554700 4.489091 0.337015 1.149182 4.486299 0.362391 1.151371 -32.529715 -5.684191 -9.377057 -28.251776 -3.458981 11.224186 0.000000 -0.000000 0.000000 -0.146764 -13.908309 -17.629084 4.812524 -41.539455 -11.716109 -0.000004 -0.000002 -0.000001 18.490208 -26.944447 8.905693 24.261073 -22.265665 0.877090 20.335963 48.442639 4.457151 6.805465 53.179365 24.697020 -0.000000 0.000001 0.000000 6.552659 3.126752 -83.624219 6.351862 5.829661 -94.918435 0.297291 1.844219 -18.312934 -0.000000 -0.000000 -0.000000 3.981691 7.974471 -81.368460 5.529518 5.842245 -86.844161 0.371367 2.054448 -20.490496 0.000000 0.000000 -0.000000 6.477260 8.339452 -81.783333 5.418837 5.835118 -85.756167 0.955154 3.207822 -33.155449 0.000000 0.000000 0.000000 5.717040 12.605492 -69.239424 3.414695 5.321296 -65.354713 2.161212 4.544051 -50.854611 -0.000000 0.000000 -0.000000 -0.181274 15.879601 26.698245 0.019262 25.756401 2.525493 -0.000004 18.198462 0.000005 29.460453 22.207131 27.253930 14.180655 25.456291 7.489888 14.155261 -29.849037 -11.697196 16.233734 -69.939949 -19.018797 -0.000001 -0.000000 0.000001 4.162281 5.166681 63.614900 3.960810 -4.604924 81.391123 0.845898 -2.678423 35.048494 0.000001 0.000000 0.000001 3.761582 -6.835020 78.287731 3.251918 -4.440556 72.419840 2.341400 -4.041712 60.154255 0.000001 -0.000001 0.000001 4.750307 -7.062503 77.033619 3.114977 -4.394948 70.641901 1.752119 -3.641598 51.376471 -0.000000 -0.000000 0.000003 1.305727 -7.283912 58.644332 1.447160 -3.375933 46.396686 2.541832 -4.149978 62.960185 -0.000001 0.000000 -0.000001 -60.835511 -0.452291 13.713539 26.127359 -0.707908 -1.889674 1.487645 0.494981 -3.068680 -0.705901 -0.000006 -0.000002 -0.000000 0.000001 -0.000000 -54.848724 -2.738835 -6.574673 21.222629 -1.196402 4.054748 0.706529 -7.535886 4.794398 0.500958 0.000001 -0.000001 -0.000000 -0.000000 0.000000 
1.382985 89.302444 -11.067745 36.379176 1.861704 -6.211334 14.961219 1.714562 2.423601 4.711476 0.362932 1.119816 4.708295 0.387165 1.124062 -33.591850 -5.682035 -9.466674 -30.198582 -3.344420 11.457108 -0.000000 -0.000000 0.000000 -0.158380 -14.326067 -17.424697 3.837439 -41.940162 -9.649583 0.000001 -0.000002 -0.000002 17.031466 -27.289041 10.258447 24.261062 -22.265669 0.877085 20.335978 48.442642 4.457141 6.805471 53.179378 24.697011 0.000000 -0.000001 0.000000 6.552660 3.126749 -83.624219 6.351854 5.829659 -94.918415 0.297295 1.844224 -18.312931 0.000000 0.000000 0.000000 3.981691 7.974474 -81.368481 5.529528 5.842257 -86.844168 0.371353 2.054469 -20.490499 -0.000000 -0.000001 0.000001 6.477261 8.339448 -81.783340 5.418836 5.835136 -85.756160 0.955169 3.207829 -33.155463 0.000000 0.000000 0.000000 5.717039 12.605494 -69.239438 3.414699 5.321298 -65.354706 2.161207 4.544068 -50.854594 -0.000000 -0.000000 -0.000001 -0.639522 17.112168 26.341956 -1.804227 27.109487 1.651370 0.000001 17.296517 -0.000002 28.877777 21.998479 25.540210 14.180636 25.456303 7.489905 14.197489 -30.087612 -11.621839 16.540334 -69.978020 -18.717056 -0.000000 0.000002 0.000001 4.166508 5.187773 63.539925 4.005930 -4.611520 81.952933 0.845916 -2.678457 35.048836 -0.000000 0.000001 -0.000001 3.724992 -6.827404 78.187737 3.249709 -4.439836 72.391140 2.341421 -4.041717 60.154856 0.000001 0.000000 -0.000001 4.735454 -7.059903 76.991497 3.106519 -4.391963 70.531525 1.752952 -3.642275 51.389681 0.000000 0.000001 -0.000003 1.301013 -7.280708 58.590476 1.442826 -3.371813 46.323094 2.541527 -4.149826 62.956135 0.000000 -0.000000 -0.000000 -65.562241 -1.280220 14.410536 28.087251 -0.646736 -2.875181 1.607105 0.546735 -2.733093 -0.723651 -0.000004 -0.000004 -0.000000 -0.000000 0.000000 -59.695799 -2.628749 -7.232517 23.242270 -1.257072 5.214802 0.722028 -7.009799 4.237531 0.459912 -0.000007 0.000000 -0.000000 -0.000001 -0.000000 
1.320870 87.995949 -11.918400 39.329018 1.215859 -6.404843 15.442486 1.850459 2.324090 4.960267 0.382517 1.069538 4.956915 0.403713 1.076257 -34.740948 -5.576922 -9.671813 -32.141269 -3.118926 11.832055 0.000000 -0.000000 0.000000 -0.158597 -14.702482 -17.160992 3.030674 -42.211635 -7.283459 0.000003 -0.000000 0.000003 15.332581 -27.721363 11.789065 24.261052 -22.265664 0.877055 20.335976 48.442652 4.457158 6.805435 53.179368 24.697045 -0.000002 -0.000001 0.000001 6.552643 3.126757 -83.624219 6.351840 5.829672 -94.918422 0.297276 1.844239 -18.312924 -0.000000 -0.000000 0.000000 3.981692 7.974475 -81.368460 5.529520 5.842263 -86.844161 0.371363 2.054436 -20.490492 0.000000 0.000000 0.000000 6.477251 8.339448 -81.783333 5.418824 5.835125 -85.756187 0.955172 3.207820 -33.155446 -0.000000 -0.000001 -0.000000 5.717057 12.605506 -69.239444 3.414697 5.321280 -65.354727 2.161217 4.544073 -50.854611 -0.000000 -0.000001 0.000000 -0.932310 17.999288 25.422024 -3.596912 28.825984 1.118213 -0.000007 16.807557 -0.000000 28.001716 21.551412 23.687158 14.180640 25.456311 7.489901 14.156785 -29.885588 -11.687793 16.028239 -69.909985 -19.220079 0.000001 -0.000001 0.000004 4.178175 5.241705 63.343803 4.008413 -4.611853 81.983696 0.845808 -2.678306 35.046657 0.000001 0.000001 -0.000001 3.703868 -6.822850 77.971691 3.243801 -4.437981 72.314922 2.341274 -4.041646 60.152991 0.000001 -0.000001 0.000000 4.713373 -7.058705 76.791933 3.100026 -4.389667 70.446824 1.752644 -3.642034 51.384893 0.000001 -0.000000 -0.000001 1.286488 -7.270847 58.423724 1.434970 -3.364304 46.189339 2.541406 -4.149769 62.954393 -0.000001 0.000000 -0.000000 -70.469725 -2.258732 15.216359 30.059027 -0.530473 -3.847090 1.728076 0.599516 -2.452582 -0.732637 0.000004 -0.000001 -0.000000 -0.000001 -0.000000 -64.633110 -2.545875 -7.818226 25.015172 -1.259850 6.500290 0.879845 -6.495830 3.606210 0.437462 -0.000002 -0.000001 0.000000 -0.000001 -0.000000 
1.275884 86.649437 -12.738403 42.122053 0.686157 -6.592864 16.206666 1.875324 2.240492 5.296103 0.384248 1.028805 5.292881 0.403249 1.037109 -35.766559 -5.520510 -9.889254 -34.765659 -3.206416 12.419345 -0.000000 0.000000 -0.000000 -0.148365 -15.043857 -16.849107 2.382231 -42.482168 -4.559471 -0.000002 -0.000003 -0.000003 13.369802 -28.157371 13.295022 24.261068 -22.265682 0.877093 20.335983 48.442642 4.457118 6.805467 53.179368 24.697025 0.000002 0.000001 0.000001 6.552657 3.126729 -83.624226 6.351857 5.829657 -94.918415 0.297282 1.844211 -18.312924 -0.000000 -0.000000 0.000000 3.981707 7.974460 -81.368467 5.529532 5.842260 -86.844182 0.371370 2.054436 -20.490498 -0.000000 0.000000 -0.000001 6.477273 8.339444 -81.783346 5.418836 5.835126 -85.756187 0.955176 3.207837 -33.155453 0.000000 -0.000001 0.000000 5.717067 12.605478 -69.239451 3.414680 5.321281 -65.354713 2.161209 4.544052 -50.854607 -0.000000 0.000000 -0.000001 -1.136658 18.702134 24.470725 -5.233256 30.606942 0.193084 -0.000016 16.702656 0.000001 26.785176 21.009213 21.943110 14.180627 25.456293 7.489897 14.132360 -29.761313 -11.727877 15.914500 -69.896406 -19.332309 0.000001 -0.000000 0.000003 4.163044 5.168182 63.606034 3.962801 -4.605232 81.415957 0.845402 -2.677718 35.038198 0.000000 0.000001 0.000000 3.699912 -6.822087 78.053107 3.230242 -4.433649 72.139570 2.340571 -4.041218 60.142650 -0.000000 0.000000 -0.000002 4.715989 -7.057617 76.878888 3.099248 -4.389410 70.436538 1.752793 -3.642136 51.387126 -0.000001 0.000000 -0.000002 1.292422 -7.274887 58.491985 1.433859 -3.363255 46.170265 2.542180 -4.150148 62.965130 -0.000001 -0.000000 0.000000 -75.208039 -3.334620 15.830022 32.023038 -0.415522 -4.686279 1.865489 0.651000 -2.247819 -0.737624 -0.000001 -0.000001 0.000000 0.000001 0.000000 -69.389094 -2.385735 -8.392909 26.859193 -1.246342 7.626532 0.978785 -6.150739 3.105978 0.413941 0.000001 0.000001 0.000000 0.000000 0.000000 
1.263632 84.898682 -13.319626 44.562842 0.410282 -6.846799 17.058037 1.776064 2.196899 5.625458 0.376576 1.033027 5.622380 0.396597 1.041258 -36.571316 -5.620454 -9.942582 -37.378466 -3.552475 12.889115 -0.000000 0.000000 0.000000 -0.128998 -15.356418 -16.500149 1.893938 -42.710911 -1.941445 0.000001 0.000000 0.000001 11.495937 -28.465915 14.507486 24.261068 -22.265660 0.877088 20.335992 48.442632 4.457124 6.805423 53.179368 24.697061 0.000001 -0.000001 0.000002 6.552654 3.126739 -83.624233 6.351849 5.829653 -94.918415 0.297274 1.844217 -18.312929 0.000000 0.000000 -0.000000 3.981716 7.974469 -81.368474 5.529530 5.842240 -86.844175 0.371362 2.054449 -20.490496 -0.000000 -0.000000 -0.000000 6.477266 8.339443 -81.783340 5.418833 5.835128 -85.756174 0.955174 3.207821 -33.155442 -0.000000 0.000001 0.000000 5.717047 12.605468 -69.239444 3.414689 5.321302 -65.354713 2.161213 4.544047 -50.854587 -0.000000 -0.000000 -0.000000 -1.308875 19.213322 24.093776 -6.437985 32.451315 -1.415740 -0.000005 16.208483 0.000001 25.609034 20.894771 20.509610 14.180642 25.456308 7.489888 14.132490 -29.756013 -11.728937 15.600159 -69.851122 -19.640694 -0.000000 0.000001 0.000004 4.175212 5.174918 63.500638 3.961442 -4.605017 81.399039 0.844809 -2.676884 35.025538 -0.000001 0.000000 -0.000000 3.682091 -6.818213 77.954834 3.231585 -4.434078 72.156994 2.338970 -4.040308 60.119947 0.000001 0.000000 -0.000003 4.713092 -7.058101 76.818598 3.096369 -4.388394 70.398992 1.753996 -3.643085 51.405831 0.000000 0.000000 -0.000001 1.289566 -7.272937 58.459295 1.428903 -3.358485 46.085878 2.546389 -4.152308 63.023194 0.000001 0.000000 0.000000 -80.008255 -4.537807 16.119955 34.906727 -0.481250 -5.260567 1.490350 0.703621 -2.178280 -0.884080 0.000006 0.000000 -0.000000 0.000000 -0.000000 -74.150398 -2.118537 -9.087434 29.872041 -1.189003 8.509171 0.335504 -5.923259 2.881814 0.387187 -0.000004 0.000001 -0.000000 -0.000001 -0.000000 
